<?xml version="1.0" encoding="UTF-8"?>
<!DOCTYPE svg PUBLIC "-//W3C//DTD SVG 1.0//EN" "http://www.w3.org/TR/2001/REC-SVG-20010904/DTD/svg10.dtd">
<!-- Creator: CorelDRAW -->
<svg xmlns="http://www.w3.org/2000/svg" xml:space="preserve" width="152px" height="174px" version="1.0" shape-rendering="geometricPrecision" text-rendering="geometricPrecision" image-rendering="optimizeQuality" fill-rule="evenodd" clip-rule="evenodd" viewBox="0 0 4340 4954" xmlns:xlink="http://www.w3.org/1999/xlink" xmlns:xodm="http://www.corel.com/coreldraw/odm/2003">
 <g id="Camada_x0020_1">
  <metadata id="CorelCorpID_0Corel-Layer"/>
  <g id="_2983223734176">
   <path fill="white" d="M889 893l823 0 0 1115 -823 0c-298,0 -541,-251 -541,-557l0 0c0,-307 243,-558 541,-558z"/>
   <path fill="white" d="M1711 4954l1 -900 1159 0c304,0 552,-257 552,-570l0 0c0,-314 -248,-571 -552,-571l-1159 0 0 -905 726 0c298,0 541,-251 541,-557l0 0c0,-307 -243,-558 -541,-558l-726 0 0 -892 796 -1c1398,-2 1659,1637 1217,2217 910,633 918,2551 -716,2736 -433,0 -865,1 -1298,1z"/>
   <path fill="white" d="M552 2913l1160 0 0 1141 -1160 0c-303,0 -552,-257 -552,-570l0 0c0,-314 249,-571 552,-571z"/>
  </g>
 </g>
</svg>